#N canvas -419 45 1920 989 12;
#X obj 1236 932 dac~;
#X obj 1314 75 loadbang;
#X obj 2209 830 *~;
#X obj 2134 571 vsl 15 128 0 1 0 0 empty empty empty 0 -9 0 10 #fcfcfc #000000 #000000 0 1;
#X obj 2134 716 pack 0 50;
#X obj 2134 744 line~;
#X obj 2229 488 soundfiler;
#X floatatom 2229 521 13 0 0 0 - - - 0;
#X obj 2230 701 line~;
#X obj 2256 545 / 44.1;
#X floatatom 2258 575 5 0 0 0 - - - 0;
#X obj 2230 647 pack 0 0;
#X obj 2262 616 i;
#X msg 2230 673 1 \, \$1 \$2;
#X obj 2229 432 bng 15 250 50 0 empty empty empty 17 7 0 10 #fcfcfc #000000 #000000;
#X obj 2228 342 receive blip;
#X text 2328 521 # of samples;
#X obj 103 892 *~;
#X obj 28 633 vsl 15 128 0 1 0 0 empty empty empty 0 -9 0 10 #fcfcfc #000000 #000000 0 1;
#X obj 28 778 pack 0 50;
#X obj 28 806 line~;
#X obj 123 550 soundfiler;
#X floatatom 123 583 13 0 0 0 - - - 0;
#X obj 124 814 tabread4~ anothersample;
#X obj 124 763 line~;
#X obj 150 607 / 44.1;
#X floatatom 152 637 5 0 0 0 - - - 0;
#X obj 124 709 pack 0 0;
#X obj 156 678 i;
#X msg 124 735 1 \, \$1 \$2;
#X obj 123 494 bng 15 250 50 0 empty empty empty 17 7 0 10 #fcfcfc #000000 #000000;
#X text 222 583 # of samples;
#X msg 123 516 read -resize game-assets/damage-sound.wav anothersample;
#X obj 1698 889 *~;
#X obj 1623 630 vsl 15 128 0 1 0 0 empty empty empty 0 -9 0 10 #fcfcfc #000000 #000000 0 1;
#X obj 1623 775 pack 0 50;
#X obj 1623 803 line~;
#X obj 1718 547 soundfiler;
#X floatatom 1718 580 13 0 0 0 - - - 0;
#X obj 1719 760 line~;
#X obj 1745 604 / 44.1;
#X floatatom 1747 634 5 0 0 0 - - - 0;
#X obj 1719 706 pack 0 0;
#X obj 1751 675 i;
#X msg 1719 732 1 \, \$1 \$2;
#X obj 1718 491 bng 15 250 50 0 empty empty empty 17 7 0 10 #fcfcfc #000000 #000000;
#X text 1817 580 # of samples;
#X obj 1717 401 receive collect;
#X msg 2229 454 read -resize game-assets/engine.wav japanmusic;
#X obj 2230 752 tabread4~ japanmusic;
#X msg 1718 513 read -resize game-assets/load-missiles.wav collect;
#X obj 1719 811 tabread4~ collect;
#N canvas 0 50 450 250 (subpatch) 0;
#X array japanmusic 100 float 3;
#A 0 0 0 0 0 0 0 0 0 0 0 0 0 0 0 0 0 0 0 0 0 0 0 0 0 0 0 0 0 0 0 0 0 0 0 0 0 0 0 0 0 0 0 0 0 0 0 0 0 0 0 0 0 0 0 0 0 0 0 0 0 0 0 0 0 0 0 0 0 0 0 0 0 0 0 0 0 0 0 0 0 0 0 0 0 0 0 0 0 0 0 0 0 0 0 0 0 0 0 0 0;
#X coords 0 1 100 -1 200 140 1;
#X restore 2366 587 graph;
#N canvas 0 50 450 250 (subpatch) 0;
#X array collect 100 float 3;
#A 0 0 0 0 0 0 0 0 0 0 0 0 0 0 0 0 0 0 0 0 0 0 0 0 0 0 0 0 0 0 0 0 0 0 0 0 0 0 0 0 0 0 0 0 0 0 0 0 0 0 0 0 0 0 0 0 0 0 0 0 0 0 0 0 0 0 0 0 0 0 0 0 0 0 0 0 0 0 0 0 0 0 0 0 0 0 0 0 0 0 0 0 0 0 0 0 0 0 0 0 0;
#X coords 0 1 100 -1 200 140 1;
#X restore 1861 634 graph;
#N canvas 0 50 450 250 (subpatch) 0;
#X array anothersample 100 float 3;
#A 0 0 0 0 0 0 0 0 0 0 0 0 0 0 0 0 0 0 0 0 0 0 0 0 0 0 0 0 0 0 0 0 0 0 0 0 0 0 0 0 0 0 0 0 0 0 0 0 0 0 0 0 0 0 0 0 0 0 0 0 0 0 0 0 0 0 0 0 0 0 0 0 0 0 0 0 0 0 0 0 0 0 0 0 0 0 0 0 0 0 0 0 0 0 0 0 0 0 0 0 0;
#X coords 0 1 100 -1 200 140 1;
#X restore 257 640 graph;
#X msg 1623 602 0.5;
#X msg 28 605 0.5;
#X msg 2134 538 0.5;
#X obj 122 404 receive damage;
#X obj 588 872 *~;
#X obj 513 613 vsl 15 128 0 1 0 0 empty empty empty 0 -9 0 10 #fcfcfc #000000 #000000 0 1;
#X obj 513 758 pack 0 50;
#X obj 513 786 line~;
#X obj 608 530 soundfiler;
#X floatatom 608 563 13 0 0 0 - - - 0;
#X obj 609 743 line~;
#X obj 635 587 / 44.1;
#X floatatom 637 617 5 0 0 0 - - - 0;
#X obj 609 689 pack 0 0;
#X obj 641 658 i;
#X msg 609 715 1 \, \$1 \$2;
#X obj 608 474 bng 15 250 50 0 empty empty empty 17 7 0 10 #fcfcfc #000000 #000000;
#X text 707 563 # of samples;
#X msg 513 585 0.5;
#X obj 607 384 receive kill;
#X obj 609 794 tabread4~ killsound;
#N canvas 0 50 450 250 (subpatch) 0;
#X array killsound 100 float 3;
#A 0 0 0 0 0 0 0 0 0 0 0 0 0 0 0 0 0 0 0 0 0 0 0 0 0 0 0 0 0 0 0 0 0 0 0 0 0 0 0 0 0 0 0 0 0 0 0 0 0 0 0 0 0 0 0 0 0 0 0 0 0 0 0 0 0 0 0 0 0 0 0 0 0 0 0 0 0 0 0 0 0 0 0 0 0 0 0 0 0 0 0 0 0 0 0 0 0 0 0 0 0;
#X coords 0 1 100 -1 200 140 1;
#X restore 792 629 graph;
#X obj 1113 860 *~;
#X obj 1038 742 pack 0 50;
#X obj 1038 770 line~;
#X obj 1133 514 soundfiler;
#X floatatom 1133 547 13 0 0 0 - - - 0;
#X obj 1134 727 line~;
#X obj 1160 571 / 44.1;
#X floatatom 1162 601 5 0 0 0 - - - 0;
#X obj 1134 673 pack 0 0;
#X obj 1166 642 i;
#X msg 1134 699 1 \, \$1 \$2;
#X obj 1133 458 bng 15 250 50 0 empty empty empty 17 7 0 10 #fcfcfc #000000 #000000;
#X text 1232 547 # of samples;
#X msg 1038 553 0.5;
#X obj 1132 368 receive throw;
#X obj 1134 778 tabread4~ shurikenthrow;
#N canvas 0 50 450 250 (subpatch) 0;
#X array shurikenthrow 100 float 3;
#A 0 0 0 0 0 0 0 0 0 0 0 0 0 0 0 0 0 0 0 0 0 0 0 0 0 0 0 0 0 0 0 0 0 0 0 0 0 0 0 0 0 0 0 0 0 0 0 0 0 0 0 0 0 0 0 0 0 0 0 0 0 0 0 0 0 0 0 0 0 0 0 0 0 0 0 0 0 0 0 0 0 0 0 0 0 0 0 0 0 0 0 0 0 0 0 0 0 0 0 0 0;
#X coords 0 1 100 -1 200 140 1;
#X restore 1312 616 graph;
#X obj 1038 595 vsl 15 128 0 1 0 0 empty empty empty 0 -9 0 10 #fcfcfc #000000 #000000 0 1;
#X msg 608 496 read -resize game-assets/dragon-kill.wav killsound;
#X msg 1134 480 read -resize game-assets/shuriken-throw.wav shurikenthrow;
#X connect 1 0 57 0;
#X connect 1 0 56 0;
#X connect 1 0 55 0;
#X connect 1 0 73 0;
#X connect 1 0 90 0;
#X connect 2 0 0 0;
#X connect 2 0 0 1;
#X connect 3 0 4 0;
#X connect 4 0 5 0;
#X connect 5 0 2 1;
#X connect 6 0 7 0;
#X connect 7 0 9 0;
#X connect 7 0 11 0;
#X connect 8 0 49 0;
#X connect 9 0 10 0;
#X connect 10 0 12 0;
#X connect 11 0 13 0;
#X connect 12 0 11 1;
#X connect 13 0 8 0;
#X connect 14 0 48 0;
#X connect 15 0 14 0;
#X connect 17 0 0 0;
#X connect 17 0 0 1;
#X connect 18 0 19 0;
#X connect 19 0 20 0;
#X connect 20 0 17 1;
#X connect 21 0 22 0;
#X connect 22 0 25 0;
#X connect 22 0 27 0;
#X connect 23 0 17 0;
#X connect 24 0 23 0;
#X connect 25 0 26 0;
#X connect 26 0 28 0;
#X connect 27 0 29 0;
#X connect 28 0 27 1;
#X connect 29 0 24 0;
#X connect 30 0 32 0;
#X connect 32 0 21 0;
#X connect 33 0 0 0;
#X connect 33 0 0 1;
#X connect 34 0 35 0;
#X connect 35 0 36 0;
#X connect 36 0 33 1;
#X connect 37 0 38 0;
#X connect 38 0 40 0;
#X connect 38 0 42 0;
#X connect 39 0 51 0;
#X connect 40 0 41 0;
#X connect 41 0 43 0;
#X connect 42 0 44 0;
#X connect 43 0 42 1;
#X connect 44 0 39 0;
#X connect 45 0 50 0;
#X connect 47 0 45 0;
#X connect 48 0 6 0;
#X connect 49 0 2 0;
#X connect 50 0 37 0;
#X connect 51 0 33 0;
#X connect 55 0 34 0;
#X connect 56 0 18 0;
#X connect 57 0 3 0;
#X connect 58 0 30 0;
#X connect 59 0 0 0;
#X connect 59 0 0 1;
#X connect 60 0 61 0;
#X connect 61 0 62 0;
#X connect 62 0 59 1;
#X connect 63 0 64 0;
#X connect 64 0 66 0;
#X connect 64 0 68 0;
#X connect 65 0 75 0;
#X connect 66 0 67 0;
#X connect 67 0 69 0;
#X connect 68 0 70 0;
#X connect 69 0 68 1;
#X connect 70 0 65 0;
#X connect 71 0 95 0;
#X connect 73 0 60 0;
#X connect 74 0 71 0;
#X connect 75 0 59 0;
#X connect 77 0 0 0;
#X connect 77 0 0 1;
#X connect 78 0 79 0;
#X connect 79 0 77 1;
#X connect 80 0 81 0;
#X connect 81 0 83 0;
#X connect 81 0 85 0;
#X connect 82 0 92 0;
#X connect 83 0 84 0;
#X connect 84 0 86 0;
#X connect 85 0 87 0;
#X connect 86 0 85 1;
#X connect 87 0 82 0;
#X connect 88 0 96 0;
#X connect 90 0 94 0;
#X connect 91 0 88 0;
#X connect 92 0 77 0;
#X connect 94 0 78 0;
#X connect 95 0 63 0;
#X connect 96 0 80 0;
